<?xml version="1.0" encoding="utf-8"?>
<!-- Generator: Adobe Illustrator 16.0.3, SVG Export Plug-In . SVG Version: 6.00 Build 0)  -->
<!DOCTYPE svg PUBLIC "-//W3C//DTD SVG 1.1//EN" "http://www.w3.org/Graphics/SVG/1.1/DTD/svg11.dtd">
<svg version="1.1" id="Layer_1" xmlns="http://www.w3.org/2000/svg" xmlns:xlink="http://www.w3.org/1999/xlink" x="0px" y="0px"
	 width="161.18px" height="100px" viewBox="0 0 161.18 100" enable-background="new 0 0 161.18 100" xml:space="preserve">
<line fill="none" stroke="#231F20" stroke-linecap="round" stroke-linejoin="round" stroke-miterlimit="2" x1="7.845" y1="17.559" x2="16.828" y2="7.008"/>
<line fill="none" stroke="#231F20" stroke-linecap="round" stroke-linejoin="round" stroke-miterlimit="2" x1="6.481" y1="16.994" x2="16.723" y2="6.753"/>
<line fill="none" stroke="#231F20" stroke-linecap="round" stroke-linejoin="round" stroke-miterlimit="2" x1="1.156" y1="21.462" x2="1.156" y2="28.65"/>
<line fill="none" stroke="#231F20" stroke-linecap="round" stroke-linejoin="round" stroke-miterlimit="2" x1="1.156" y1="33.897" x2="1.156" y2="41.086"/>
<line fill="none" stroke="#231F20" stroke-linecap="round" stroke-linejoin="round" stroke-miterlimit="2" x1="1.156" y1="46.334" x2="1.156" y2="53.521"/>
<line fill="none" stroke="#231F20" stroke-linecap="round" stroke-linejoin="round" stroke-miterlimit="2" x1="1.156" y1="58.77" x2="1.156" y2="65.958"/>
<line fill="none" stroke="#231F20" stroke-linecap="round" stroke-linejoin="round" stroke-miterlimit="2" x1="1.156" y1="71.206" x2="1.156" y2="78.394"/>
<line fill="none" stroke="#231F20" stroke-linecap="round" stroke-linejoin="round" stroke-miterlimit="2" x1="21.19" y1="98.428" x2="28.378" y2="98.428"/>
<line fill="none" stroke="#231F20" stroke-linecap="round" stroke-linejoin="round" stroke-miterlimit="2" x1="33.627" y1="98.428" x2="40.814" y2="98.428"/>
<line fill="none" stroke="#231F20" stroke-linecap="round" stroke-linejoin="round" stroke-miterlimit="2" x1="46.062" y1="98.428" x2="53.25" y2="98.428"/>
<line fill="none" stroke="#231F20" stroke-linecap="round" stroke-linejoin="round" stroke-miterlimit="2" x1="58.499" y1="98.428" x2="65.687" y2="98.428"/>
<line fill="none" stroke="#231F20" stroke-linecap="round" stroke-linejoin="round" stroke-miterlimit="2" x1="70.935" y1="98.428" x2="78.121" y2="98.428"/>
<line fill="none" stroke="#231F20" stroke-linecap="round" stroke-linejoin="round" stroke-miterlimit="2" x1="5.757" y1="18.743" x2="5.757" y2="91.34"/>
<line fill="none" stroke="#231F20" stroke-linecap="round" stroke-linejoin="round" stroke-miterlimit="2" x1="7.301" y1="21.024" x2="7.301" y2="91.34"/>
<line fill="none" stroke="#231F20" stroke-linecap="round" stroke-linejoin="round" stroke-miterlimit="2" x1="8.245" y1="93.827" x2="91.069" y2="93.827"/>
<line fill="none" stroke="#231F20" stroke-linecap="round" stroke-linejoin="round" stroke-miterlimit="2" x1="8.245" y1="92.284" x2="91.069" y2="92.284"/>
<line fill="none" stroke="#231F20" stroke-linecap="round" stroke-linejoin="round" stroke-miterlimit="2" x1="7.121" y1="19.308" x2="7.301" y2="21.024"/>
<line fill="none" stroke="#231F20" stroke-linecap="round" stroke-linejoin="round" stroke-miterlimit="2" x1="21.19" y1="93.827" x2="21.19" y2="98.428"/>
<line fill="none" stroke="#231F20" stroke-linecap="round" stroke-linejoin="round" stroke-miterlimit="2" x1="21.19" y1="6.029" x2="21.19" y2="1.428"/>
<line fill="none" stroke="#231F20" stroke-linecap="round" stroke-linejoin="round" stroke-miterlimit="2" x1="5.757" y1="78.394" x2="1.156" y2="78.394"/>
<line fill="none" stroke="#231F20" stroke-linecap="round" stroke-linejoin="round" stroke-miterlimit="2" x1="93.554" y1="78.394" x2="98.157" y2="78.394"/>
<line fill="none" stroke="#231F20" stroke-linecap="round" stroke-linejoin="round" stroke-miterlimit="2" x1="28.378" y1="93.827" x2="28.378" y2="98.428"/>
<line fill="none" stroke="#231F20" stroke-linecap="round" stroke-linejoin="round" stroke-miterlimit="2" x1="28.378" y1="6.029" x2="28.378" y2="1.428"/>
<line fill="none" stroke="#231F20" stroke-linecap="round" stroke-linejoin="round" stroke-miterlimit="2" x1="5.757" y1="71.206" x2="1.156" y2="71.206"/>
<line fill="none" stroke="#231F20" stroke-linecap="round" stroke-linejoin="round" stroke-miterlimit="2" x1="93.554" y1="71.206" x2="98.157" y2="71.206"/>
<line fill="none" stroke="#231F20" stroke-linecap="round" stroke-linejoin="round" stroke-miterlimit="2" x1="33.627" y1="93.827" x2="33.627" y2="98.428"/>
<line fill="none" stroke="#231F20" stroke-linecap="round" stroke-linejoin="round" stroke-miterlimit="2" x1="33.627" y1="6.029" x2="33.627" y2="1.428"/>
<line fill="none" stroke="#231F20" stroke-linecap="round" stroke-linejoin="round" stroke-miterlimit="2" x1="5.757" y1="65.958" x2="1.156" y2="65.958"/>
<line fill="none" stroke="#231F20" stroke-linecap="round" stroke-linejoin="round" stroke-miterlimit="2" x1="93.554" y1="65.958" x2="98.157" y2="65.958"/>
<line fill="none" stroke="#231F20" stroke-linecap="round" stroke-linejoin="round" stroke-miterlimit="2" x1="40.814" y1="93.827" x2="40.814" y2="98.428"/>
<line fill="none" stroke="#231F20" stroke-linecap="round" stroke-linejoin="round" stroke-miterlimit="2" x1="40.814" y1="6.029" x2="40.814" y2="1.428"/>
<line fill="none" stroke="#231F20" stroke-linecap="round" stroke-linejoin="round" stroke-miterlimit="2" x1="5.757" y1="58.77" x2="1.156" y2="58.77"/>
<line fill="none" stroke="#231F20" stroke-linecap="round" stroke-linejoin="round" stroke-miterlimit="2" x1="93.554" y1="58.77" x2="98.157" y2="58.77"/>
<line fill="none" stroke="#231F20" stroke-linecap="round" stroke-linejoin="round" stroke-miterlimit="2" x1="46.062" y1="93.827" x2="46.062" y2="98.428"/>
<line fill="none" stroke="#231F20" stroke-linecap="round" stroke-linejoin="round" stroke-miterlimit="2" x1="46.062" y1="6.029" x2="46.062" y2="1.428"/>
<line fill="none" stroke="#231F20" stroke-linecap="round" stroke-linejoin="round" stroke-miterlimit="2" x1="5.757" y1="53.521" x2="1.156" y2="53.521"/>
<line fill="none" stroke="#231F20" stroke-linecap="round" stroke-linejoin="round" stroke-miterlimit="2" x1="93.554" y1="53.521" x2="98.157" y2="53.521"/>
<line fill="none" stroke="#231F20" stroke-linecap="round" stroke-linejoin="round" stroke-miterlimit="2" x1="53.25" y1="93.827" x2="53.25" y2="98.428"/>
<line fill="none" stroke="#231F20" stroke-linecap="round" stroke-linejoin="round" stroke-miterlimit="2" x1="53.25" y1="6.029" x2="53.25" y2="1.428"/>
<line fill="none" stroke="#231F20" stroke-linecap="round" stroke-linejoin="round" stroke-miterlimit="2" x1="5.757" y1="46.334" x2="1.156" y2="46.334"/>
<line fill="none" stroke="#231F20" stroke-linecap="round" stroke-linejoin="round" stroke-miterlimit="2" x1="93.554" y1="46.334" x2="98.157" y2="46.334"/>
<line fill="none" stroke="#231F20" stroke-linecap="round" stroke-linejoin="round" stroke-miterlimit="2" x1="58.499" y1="93.827" x2="58.499" y2="98.428"/>
<line fill="none" stroke="#231F20" stroke-linecap="round" stroke-linejoin="round" stroke-miterlimit="2" x1="58.499" y1="6.029" x2="58.499" y2="1.428"/>
<line fill="none" stroke="#231F20" stroke-linecap="round" stroke-linejoin="round" stroke-miterlimit="2" x1="5.757" y1="41.086" x2="1.156" y2="41.086"/>
<line fill="none" stroke="#231F20" stroke-linecap="round" stroke-linejoin="round" stroke-miterlimit="2" x1="93.554" y1="41.086" x2="98.157" y2="41.086"/>
<line fill="none" stroke="#231F20" stroke-linecap="round" stroke-linejoin="round" stroke-miterlimit="2" x1="65.687" y1="93.827" x2="65.687" y2="98.428"/>
<line fill="none" stroke="#231F20" stroke-linecap="round" stroke-linejoin="round" stroke-miterlimit="2" x1="65.687" y1="6.029" x2="65.687" y2="1.428"/>
<line fill="none" stroke="#231F20" stroke-linecap="round" stroke-linejoin="round" stroke-miterlimit="2" x1="5.757" y1="33.897" x2="1.156" y2="33.897"/>
<line fill="none" stroke="#231F20" stroke-linecap="round" stroke-linejoin="round" stroke-miterlimit="2" x1="93.554" y1="33.897" x2="98.157" y2="33.897"/>
<line fill="none" stroke="#231F20" stroke-linecap="round" stroke-linejoin="round" stroke-miterlimit="2" x1="70.935" y1="93.827" x2="70.935" y2="98.428"/>
<line fill="none" stroke="#231F20" stroke-linecap="round" stroke-linejoin="round" stroke-miterlimit="2" x1="70.935" y1="6.029" x2="70.935" y2="1.428"/>
<line fill="none" stroke="#231F20" stroke-linecap="round" stroke-linejoin="round" stroke-miterlimit="2" x1="5.757" y1="28.65" x2="1.156" y2="28.65"/>
<line fill="none" stroke="#231F20" stroke-linecap="round" stroke-linejoin="round" stroke-miterlimit="2" x1="93.554" y1="28.65" x2="98.157" y2="28.65"/>
<line fill="none" stroke="#231F20" stroke-linecap="round" stroke-linejoin="round" stroke-miterlimit="2" x1="78.121" y1="93.827" x2="78.121" y2="98.428"/>
<line fill="none" stroke="#231F20" stroke-linecap="round" stroke-linejoin="round" stroke-miterlimit="2" x1="78.121" y1="6.029" x2="78.121" y2="1.428"/>
<line fill="none" stroke="#231F20" stroke-linecap="round" stroke-linejoin="round" stroke-miterlimit="2" x1="5.757" y1="21.462" x2="1.156" y2="21.462"/>
<line fill="none" stroke="#231F20" stroke-linecap="round" stroke-linejoin="round" stroke-miterlimit="2" x1="93.554" y1="21.462" x2="98.157" y2="21.462"/>
<line fill="none" stroke="#231F20" stroke-linecap="round" stroke-linejoin="round" stroke-miterlimit="2" x1="89.539" y1="19.265" x2="9.775" y2="19.265"/>
<line fill="none" stroke="#231F20" stroke-linecap="round" stroke-linejoin="round" stroke-miterlimit="2" x1="93.327" y1="8.516" x2="92.013" y2="21.023"/>
<line fill="none" stroke="#231F20" stroke-linecap="round" stroke-linejoin="round" stroke-miterlimit="2" x1="92.014" y1="91.34" x2="92.014" y2="21.023"/>
<line fill="none" stroke="#231F20" stroke-linecap="round" stroke-linejoin="round" stroke-miterlimit="2" x1="93.554" y1="91.34" x2="93.554" y2="8.516"/>
<line fill="none" stroke="#231F20" stroke-linecap="round" stroke-linejoin="round" stroke-miterlimit="2" x1="18.577" y1="6.283" x2="91.008" y2="6.283"/>
<line fill="none" stroke="#231F20" stroke-linecap="round" stroke-linejoin="round" stroke-miterlimit="2" x1="91.069" y1="6.029" x2="18.471" y2="6.029"/>
<line fill="none" stroke="#231F20" stroke-linecap="round" stroke-linejoin="round" stroke-miterlimit="2" x1="98.157" y1="78.394" x2="98.157" y2="71.206"/>
<line fill="none" stroke="#231F20" stroke-linecap="round" stroke-linejoin="round" stroke-miterlimit="2" x1="98.157" y1="65.958" x2="98.157" y2="58.77"/>
<line fill="none" stroke="#231F20" stroke-linecap="round" stroke-linejoin="round" stroke-miterlimit="2" x1="98.157" y1="53.521" x2="98.157" y2="46.334"/>
<line fill="none" stroke="#231F20" stroke-linecap="round" stroke-linejoin="round" stroke-miterlimit="2" x1="98.157" y1="41.086" x2="98.157" y2="33.897"/>
<line fill="none" stroke="#231F20" stroke-linecap="round" stroke-linejoin="round" stroke-miterlimit="2" x1="98.157" y1="28.65" x2="98.157" y2="21.462"/>
<line fill="none" stroke="#231F20" stroke-linecap="round" stroke-linejoin="round" stroke-miterlimit="2" x1="78.121" y1="1.428" x2="70.935" y2="1.428"/>
<line fill="none" stroke="#231F20" stroke-linecap="round" stroke-linejoin="round" stroke-miterlimit="2" x1="65.687" y1="1.428" x2="58.499" y2="1.428"/>
<line fill="none" stroke="#231F20" stroke-linecap="round" stroke-linejoin="round" stroke-miterlimit="2" x1="53.25" y1="1.428" x2="46.062" y2="1.428"/>
<line fill="none" stroke="#231F20" stroke-linecap="round" stroke-linejoin="round" stroke-miterlimit="2" x1="40.814" y1="1.428" x2="33.627" y2="1.428"/>
<line fill="none" stroke="#231F20" stroke-linecap="round" stroke-linejoin="round" stroke-miterlimit="2" x1="28.378" y1="1.428" x2="21.19" y2="1.428"/>
<line fill="none" stroke="#231F20" stroke-linecap="round" stroke-linejoin="round" stroke-miterlimit="2" x1="135.861" y1="98.428" x2="148.918" y2="98.428"/>
<line fill="none" stroke="#231F20" stroke-linecap="round" stroke-linejoin="round" stroke-miterlimit="2" x1="148.918" y1="96.438" x2="135.861" y2="96.438"/>
<line fill="none" stroke="#231F20" stroke-linecap="round" stroke-linejoin="round" stroke-miterlimit="2" x1="134.617" y1="93.827" x2="151.541" y2="92.048"/>
<line fill="none" stroke="#231F20" stroke-linecap="round" stroke-linejoin="round" stroke-miterlimit="2" x1="132.627" y1="93.827" x2="134.616" y2="93.827"/>
<line fill="none" stroke="#231F20" stroke-linecap="round" stroke-linejoin="round" stroke-miterlimit="2" x1="132.627" y1="93.827" x2="117.941" y2="92.284"/>
<line fill="none" stroke="#231F20" stroke-linecap="round" stroke-linejoin="round" stroke-miterlimit="2" x1="128.71" y1="6.998" x2="116.442" y2="19.265"/>
<line fill="none" stroke="#231F20" stroke-linecap="round" stroke-linejoin="round" stroke-miterlimit="2" x1="132.627" y1="78.394" x2="146.556" y2="78.394"/>
<line fill="none" stroke="#231F20" stroke-linecap="round" stroke-linejoin="round" stroke-miterlimit="2" x1="158.743" y1="76.902" x2="149.043" y2="76.902"/>
<line fill="none" stroke="#231F20" stroke-linecap="round" stroke-linejoin="round" stroke-miterlimit="2" x1="115.715" y1="89.81" x2="115.715" y2="21.024"/>
<line fill="none" stroke="#231F20" stroke-linecap="round" stroke-linejoin="round" stroke-miterlimit="2" x1="149.044" y1="72.698" x2="158.743" y2="72.698"/>
<line fill="none" stroke="#231F20" stroke-linecap="round" stroke-linejoin="round" stroke-miterlimit="2" x1="132.627" y1="71.206" x2="146.556" y2="71.206"/>
<line fill="none" stroke="#231F20" stroke-linecap="round" stroke-linejoin="round" stroke-miterlimit="2" x1="132.627" y1="65.958" x2="146.556" y2="65.958"/>
<line fill="none" stroke="#231F20" stroke-linecap="round" stroke-linejoin="round" stroke-miterlimit="2" x1="158.743" y1="64.465" x2="149.043" y2="64.465"/>
<line fill="none" stroke="#231F20" stroke-linecap="round" stroke-linejoin="round" stroke-miterlimit="2" x1="146.556" y1="28.65" x2="149.044" y2="27.158"/>
<line fill="none" stroke="#231F20" stroke-linecap="round" stroke-linejoin="round" stroke-miterlimit="2" x1="149.044" y1="60.262" x2="158.743" y2="60.262"/>
<line fill="none" stroke="#231F20" stroke-linecap="round" stroke-linejoin="round" stroke-miterlimit="2" x1="146.556" y1="71.206" x2="149.044" y2="72.698"/>
<line fill="none" stroke="#231F20" stroke-linecap="round" stroke-linejoin="round" stroke-miterlimit="2" x1="132.627" y1="58.77" x2="146.556" y2="58.77"/>
<line fill="none" stroke="#231F20" stroke-linecap="round" stroke-linejoin="round" stroke-miterlimit="2" x1="132.627" y1="95.195" x2="132.627" y2="4.661"/>
<line fill="none" stroke="#231F20" stroke-linecap="round" stroke-linejoin="round" stroke-miterlimit="2" x1="132.627" y1="53.521" x2="146.556" y2="53.521"/>
<line fill="none" stroke="#231F20" stroke-linecap="round" stroke-linejoin="round" stroke-miterlimit="2" x1="134.617" y1="95.195" x2="134.617" y2="78.394"/>
<line fill="none" stroke="#231F20" stroke-linecap="round" stroke-linejoin="round" stroke-miterlimit="2" x1="134.617" y1="71.206" x2="134.617" y2="65.958"/>
<line fill="none" stroke="#231F20" stroke-linecap="round" stroke-linejoin="round" stroke-miterlimit="2" x1="134.617" y1="58.77" x2="134.617" y2="53.521"/>
<line fill="none" stroke="#231F20" stroke-linecap="round" stroke-linejoin="round" stroke-miterlimit="2" x1="134.617" y1="46.334" x2="134.617" y2="41.086"/>
<line fill="none" stroke="#231F20" stroke-linecap="round" stroke-linejoin="round" stroke-miterlimit="2" x1="134.617" y1="33.897" x2="134.617" y2="28.65"/>
<line fill="none" stroke="#231F20" stroke-linecap="round" stroke-linejoin="round" stroke-miterlimit="2" x1="134.617" y1="21.462" x2="134.617" y2="4.661"/>
<line fill="none" stroke="#231F20" stroke-linecap="round" stroke-linejoin="round" stroke-miterlimit="2" x1="146.556" y1="41.086" x2="149.044" y2="39.594"/>
<line fill="none" stroke="#231F20" stroke-linecap="round" stroke-linejoin="round" stroke-miterlimit="2" x1="158.743" y1="52.03" x2="149.043" y2="52.03"/>
<line fill="none" stroke="#231F20" stroke-linecap="round" stroke-linejoin="round" stroke-miterlimit="2" x1="146.556" y1="58.77" x2="149.044" y2="60.263"/>
<line fill="none" stroke="#231F20" stroke-linecap="round" stroke-linejoin="round" stroke-miterlimit="2" x1="149.044" y1="47.826" x2="158.743" y2="47.826"/>
<line fill="none" stroke="#231F20" stroke-linecap="round" stroke-linejoin="round" stroke-miterlimit="2" x1="132.627" y1="46.334" x2="146.556" y2="46.334"/>
<line fill="none" stroke="#231F20" stroke-linecap="round" stroke-linejoin="round" stroke-miterlimit="2" x1="146.556" y1="1.428" x2="146.556" y2="3.417"/>
<line fill="none" stroke="#231F20" stroke-linecap="round" stroke-linejoin="round" stroke-miterlimit="2" x1="146.556" y1="98.428" x2="146.556" y2="96.438"/>
<line fill="none" stroke="#231F20" stroke-linecap="round" stroke-linejoin="round" stroke-miterlimit="2" x1="146.556" y1="53.521" x2="149.044" y2="52.03"/>
<line fill="none" stroke="#231F20" stroke-linecap="round" stroke-linejoin="round" stroke-miterlimit="2" x1="132.627" y1="41.086" x2="146.556" y2="41.086"/>
<line fill="none" stroke="#231F20" stroke-linecap="round" stroke-linejoin="round" stroke-miterlimit="2" x1="158.743" y1="39.593" x2="149.043" y2="39.593"/>
<line fill="none" stroke="#231F20" stroke-linecap="round" stroke-linejoin="round" stroke-miterlimit="2" x1="146.556" y1="46.334" x2="149.044" y2="47.826"/>
<line fill="none" stroke="#231F20" stroke-linecap="round" stroke-linejoin="round" stroke-miterlimit="2" x1="149.044" y1="1.428" x2="149.044" y2="3.418"/>
<line fill="none" stroke="#231F20" stroke-linecap="round" stroke-linejoin="round" stroke-miterlimit="2" x1="149.044" y1="98.428" x2="149.044" y2="96.438"/>
<line fill="none" stroke="#231F20" stroke-linecap="round" stroke-linejoin="round" stroke-miterlimit="2" x1="149.044" y1="35.39" x2="158.743" y2="35.39"/>
<line fill="none" stroke="#231F20" stroke-linecap="round" stroke-linejoin="round" stroke-miterlimit="2" x1="153.769" y1="10.282" x2="153.769" y2="22.955"/>
<line fill="none" stroke="#231F20" stroke-linecap="round" stroke-linejoin="round" stroke-miterlimit="2" x1="153.769" y1="27.158" x2="153.769" y2="35.39"/>
<line fill="none" stroke="#231F20" stroke-linecap="round" stroke-linejoin="round" stroke-miterlimit="2" x1="153.769" y1="39.593" x2="153.769" y2="47.826"/>
<line fill="none" stroke="#231F20" stroke-linecap="round" stroke-linejoin="round" stroke-miterlimit="2" x1="153.769" y1="52.03" x2="153.769" y2="60.262"/>
<line fill="none" stroke="#231F20" stroke-linecap="round" stroke-linejoin="round" stroke-miterlimit="2" x1="153.769" y1="64.465" x2="153.769" y2="72.698"/>
<line fill="none" stroke="#231F20" stroke-linecap="round" stroke-linejoin="round" stroke-miterlimit="2" x1="153.769" y1="76.902" x2="153.769" y2="89.574"/>
<line fill="none" stroke="#231F20" stroke-linecap="round" stroke-linejoin="round" stroke-miterlimit="2" x1="132.627" y1="33.897" x2="146.556" y2="33.897"/>
<line fill="none" stroke="#231F20" stroke-linecap="round" stroke-linejoin="round" stroke-miterlimit="2" x1="158.743" y1="76.902" x2="158.743" y2="72.698"/>
<line fill="none" stroke="#231F20" stroke-linecap="round" stroke-linejoin="round" stroke-miterlimit="2" x1="158.743" y1="64.465" x2="158.743" y2="60.262"/>
<line fill="none" stroke="#231F20" stroke-linecap="round" stroke-linejoin="round" stroke-miterlimit="2" x1="158.743" y1="52.03" x2="158.743" y2="47.826"/>
<line fill="none" stroke="#231F20" stroke-linecap="round" stroke-linejoin="round" stroke-miterlimit="2" x1="158.743" y1="39.593" x2="158.743" y2="35.39"/>
<line fill="none" stroke="#231F20" stroke-linecap="round" stroke-linejoin="round" stroke-miterlimit="2" x1="158.743" y1="27.158" x2="158.743" y2="22.954"/>
<line fill="none" stroke="#231F20" stroke-linecap="round" stroke-linejoin="round" stroke-miterlimit="2" x1="146.556" y1="65.958" x2="149.044" y2="64.466"/>
<line fill="none" stroke="#231F20" stroke-linecap="round" stroke-linejoin="round" stroke-miterlimit="2" x1="132.627" y1="28.65" x2="146.556" y2="28.65"/>
<line fill="none" stroke="#231F20" stroke-linecap="round" stroke-linejoin="round" stroke-miterlimit="2" x1="146.556" y1="33.897" x2="149.044" y2="35.391"/>
<line fill="none" stroke="#231F20" stroke-linecap="round" stroke-linejoin="round" stroke-miterlimit="2" x1="158.743" y1="27.158" x2="149.043" y2="27.158"/>
<line fill="none" stroke="#231F20" stroke-linecap="round" stroke-linejoin="round" stroke-miterlimit="2" x1="149.044" y1="22.954" x2="158.743" y2="22.954"/>
<line fill="none" stroke="#231F20" stroke-linecap="round" stroke-linejoin="round" stroke-miterlimit="2" x1="132.627" y1="21.462" x2="146.556" y2="21.462"/>
<line fill="none" stroke="#231F20" stroke-linecap="round" stroke-linejoin="round" stroke-miterlimit="2" x1="146.556" y1="78.394" x2="149.044" y2="76.902"/>
<line fill="none" stroke="#231F20" stroke-linecap="round" stroke-linejoin="round" stroke-miterlimit="2" x1="146.556" y1="21.462" x2="149.044" y2="22.955"/>
<polyline fill="none" stroke="#231F20" stroke-linecap="round" stroke-linejoin="round" stroke-miterlimit="2" points="
	130.209,6.283 132.627,6.028 134.616,6.028 "/>
<line fill="none" stroke="#231F20" stroke-linecap="round" stroke-linejoin="round" stroke-miterlimit="2" x1="151.542" y1="7.808" x2="134.617" y2="6.028"/>
<line fill="none" stroke="#231F20" stroke-linecap="round" stroke-linejoin="round" stroke-miterlimit="2" x1="148.918" y1="3.417" x2="135.861" y2="3.417"/>
<line fill="none" stroke="#231F20" stroke-linecap="round" stroke-linejoin="round" stroke-miterlimit="2" x1="135.861" y1="1.428" x2="148.918" y2="1.428"/>
<path fill="none" stroke="#231F20" stroke-linecap="round" stroke-linejoin="round" stroke-miterlimit="2" d="M5.757,91.34
	c0,1.373,1.113,2.487,2.487,2.487"/>
<path fill="none" stroke="#231F20" stroke-linecap="round" stroke-linejoin="round" stroke-miterlimit="2" d="M7.301,91.34
	c0,0.521,0.423,0.943,0.944,0.943"/>
<path fill="none" stroke="#231F20" stroke-linecap="round" stroke-linejoin="round" stroke-miterlimit="2" d="M44.718,12.887
	c-0.004,0.025-0.008,0.05-0.011,0.074c-0.006,0.04-0.011,0.08-0.015,0.122"/>
<path fill="none" stroke="#231F20" stroke-linecap="round" stroke-linejoin="round" stroke-miterlimit="2" d="M7.845,17.559
	c-0.462,0.466-0.721,1.094-0.725,1.75"/>
<path fill="none" stroke="#231F20" stroke-linecap="round" stroke-linejoin="round" stroke-miterlimit="2" d="M18.577,6.283
	c-0.655,0.003-1.284,0.263-1.749,0.725"/>
<path fill="none" stroke="#231F20" stroke-linecap="round" stroke-linejoin="round" stroke-miterlimit="2" d="M18.471,6.029
	c-0.324,0-0.646,0.064-0.946,0.188"/>
<path fill="none" stroke="#231F20" stroke-linecap="round" stroke-linejoin="round" stroke-miterlimit="2" d="M6.481,16.994
	c-0.229,0.229-0.412,0.502-0.536,0.802"/>
<path fill="none" stroke="#231F20" stroke-linecap="round" stroke-linejoin="round" stroke-miterlimit="2" d="M17.525,6.216
	c-0.3,0.125-0.573,0.307-0.802,0.537"/>
<path fill="none" stroke="#231F20" stroke-linecap="round" stroke-linejoin="round" stroke-miterlimit="2" d="M5.946,17.796
	c-0.125,0.3-0.188,0.622-0.188,0.947"/>
<path fill="none" stroke="#231F20" stroke-linecap="round" stroke-linejoin="round" stroke-miterlimit="2" d="M91.069,93.827
	c1.372,0,2.484-1.114,2.484-2.487"/>
<path fill="none" stroke="#231F20" stroke-linecap="round" stroke-linejoin="round" stroke-miterlimit="2" d="M91.069,92.284
	c0.52,0,0.944-0.423,0.944-0.944"/>
<path fill="none" stroke="#231F20" stroke-linecap="round" stroke-linejoin="round" stroke-miterlimit="2" d="M54.606,12.961
	c-0.004-0.024-0.008-0.05-0.012-0.074"/>
<path fill="none" stroke="#231F20" stroke-linecap="round" stroke-linejoin="round" stroke-miterlimit="2" d="M54.621,13.083
	c-0.003-0.042-0.008-0.082-0.014-0.122"/>
<path fill="none" stroke="#231F20" stroke-linecap="round" stroke-linejoin="round" stroke-miterlimit="2" d="M93.554,8.516
	c0-1.373-1.112-2.487-2.484-2.487"/>
<path fill="none" stroke="#231F20" stroke-linecap="round" stroke-linejoin="round" stroke-miterlimit="2" d="M93.327,8.516
	c-0.001-1.247-1.012-2.256-2.258-2.257"/>
<path fill="none" stroke="#231F20" stroke-linecap="round" stroke-linejoin="round" stroke-miterlimit="2" d="M153.778,80.066
	c3.874,2.205,5.779,6.742,4.638,11.052 M158.416,91.118c-1.141,4.31-5.039,7.31-9.498,7.31"/>
<path fill="none" stroke="#231F20" stroke-linecap="round" stroke-linejoin="round" stroke-miterlimit="2" d="M148.918,1.428
	c4.459,0,8.357,3.001,9.498,7.311 M158.416,8.738c1.142,4.31-0.764,8.847-4.638,11.052"/>
<path fill="none" stroke="#231F20" stroke-linecap="round" stroke-linejoin="round" stroke-miterlimit="2" d="M153.781,82.46
	c2.614,2.07,3.634,5.568,2.537,8.718 M156.318,91.178c-1.096,3.15-4.064,5.26-7.4,5.26"/>
<path fill="none" stroke="#231F20" stroke-linecap="round" stroke-linejoin="round" stroke-miterlimit="2" d="M148.918,3.418
	c3.336,0,6.305,2.11,7.4,5.26 M156.318,8.678c1.097,3.149,0.077,6.647-2.537,8.718"/>
<path fill="none" stroke="#231F20" stroke-linecap="round" stroke-linejoin="round" stroke-miterlimit="2" d="M132.627,95.195
	c0,1.786,1.448,3.232,3.234,3.232"/>
<path fill="none" stroke="#231F20" stroke-linecap="round" stroke-linejoin="round" stroke-miterlimit="2" d="M135.861,1.428
	c-1.786,0-3.234,1.447-3.234,3.233"/>
<path fill="none" stroke="#231F20" stroke-linecap="round" stroke-linejoin="round" stroke-miterlimit="2" d="M130.209,6.283
	c-0.566,0.06-1.096,0.312-1.499,0.714"/>
<path fill="none" stroke="#231F20" stroke-linecap="round" stroke-linejoin="round" stroke-miterlimit="2" d="M115.715,89.81
	c0,1.273,0.959,2.341,2.227,2.473"/>
<path fill="none" stroke="#231F20" stroke-linecap="round" stroke-linejoin="round" stroke-miterlimit="2" d="M116.443,19.265
	c-0.467,0.467-0.729,1.1-0.729,1.759"/>
<path fill="none" stroke="#231F20" stroke-linecap="round" stroke-linejoin="round" stroke-miterlimit="2" d="M151.542,92.048
	c1.265-0.133,2.227-1.201,2.227-2.474"/>
<path fill="none" stroke="#231F20" stroke-linecap="round" stroke-linejoin="round" stroke-miterlimit="2" d="M153.769,10.282
	c0-1.273-0.962-2.341-2.228-2.474"/>
<path fill="none" stroke="#231F20" stroke-linecap="round" stroke-linejoin="round" stroke-miterlimit="2" d="M134.617,95.195
	c0,0.687,0.557,1.243,1.244,1.243"/>
<path fill="none" stroke="#231F20" stroke-linecap="round" stroke-linejoin="round" stroke-miterlimit="2" d="M135.861,3.417
	c-0.688,0-1.244,0.557-1.244,1.243"/>
<polyline fill="none" stroke="#231F20" stroke-linecap="round" stroke-linejoin="round" stroke-miterlimit="2" points="
	49.656,16.476 49.599,16.476 49.54,16.476 49.481,16.474 49.423,16.472 49.364,16.47 49.307,16.467 49.247,16.464 49.189,16.46 
	49.131,16.456 49.073,16.452 49.015,16.447 48.957,16.441 48.898,16.435 48.84,16.429 48.783,16.421 48.724,16.414 48.667,16.405 
	48.609,16.398 48.551,16.389 48.494,16.378 48.436,16.369 48.378,16.358 48.321,16.348 48.264,16.335 48.207,16.324 48.149,16.311 
	48.093,16.298 48.035,16.284 47.979,16.271 47.922,16.256 47.866,16.241 47.81,16.225 47.753,16.209 47.698,16.192 47.642,16.175 
	47.586,16.158 47.53,16.139 47.475,16.121 47.42,16.101 47.366,16.081 47.311,16.061 47.256,16.04 47.201,16.019 47.148,15.996 
	47.094,15.974 47.04,15.951 46.987,15.928 46.934,15.902 46.88,15.878 46.828,15.852 46.775,15.827 46.724,15.8 46.672,15.773 
	46.621,15.745 46.569,15.717 46.519,15.688 46.468,15.659 46.419,15.628 46.369,15.598 46.319,15.567 46.27,15.536 46.222,15.502 
	46.173,15.47 46.125,15.437 46.078,15.403 46.031,15.367 45.985,15.332 45.939,15.295 45.894,15.26 45.849,15.221 45.804,15.184 
	45.76,15.145 45.716,15.106 45.673,15.066 45.631,15.026 45.589,14.984 45.549,14.943 45.509,14.9 45.469,14.857 45.43,14.814 
	45.393,14.77 45.354,14.725 45.317,14.679 45.282,14.633 45.246,14.587 45.212,14.54 45.179,14.491 45.146,14.443 45.114,14.394 
	45.084,14.344 45.054,14.293 45.025,14.243 44.998,14.192 44.971,14.14 44.946,14.087 44.92,14.034 44.897,13.981 44.875,13.927 
	44.853,13.873 44.833,13.818 44.813,13.763 44.796,13.707 44.779,13.652 44.765,13.595 44.75,13.538 44.737,13.481 44.725,13.423 
	44.716,13.366 44.707,13.309 44.699,13.25 44.693,13.192 44.688,13.133 44.685,13.076 44.683,13.017 44.682,12.959 "/>
<polyline fill="none" stroke="#231F20" stroke-linecap="round" stroke-linejoin="round" stroke-miterlimit="2" points="
	54.631,12.959 54.63,13.018 54.628,13.076 54.625,13.133 54.621,13.192 54.614,13.25 54.606,13.309 54.598,13.366 54.587,13.424 
	54.575,13.481 54.563,13.538 54.549,13.595 54.533,13.651 54.518,13.707 54.5,13.762 54.48,13.817 54.46,13.873 54.438,13.927 
	54.417,13.981 54.393,14.034 54.368,14.087 54.342,14.14 54.315,14.191 54.288,14.243 54.258,14.293 54.229,14.344 54.198,14.394 
	54.167,14.443 54.134,14.491 54.101,14.54 54.066,14.586 54.031,14.634 53.996,14.679 53.958,14.725 53.92,14.77 53.882,14.813 
	53.844,14.857 53.805,14.9 53.764,14.943 53.723,14.984 53.681,15.026 53.64,15.066 53.597,15.106 53.553,15.145 53.51,15.184 
	53.464,15.221 53.42,15.259 53.374,15.295 53.329,15.331 53.283,15.367 53.236,15.402 53.188,15.437 53.14,15.47 53.092,15.502 
	53.043,15.535 52.994,15.566 52.945,15.598 52.895,15.628 52.845,15.659 52.794,15.688 52.743,15.717 52.692,15.745 52.641,15.773 
	52.589,15.8 52.537,15.827 52.485,15.852 52.433,15.878 52.379,15.902 52.326,15.928 52.273,15.95 52.219,15.975 52.165,15.996 
	52.111,16.019 52.057,16.04 52.002,16.062 51.947,16.081 51.893,16.101 51.837,16.12 51.782,16.139 51.727,16.158 51.671,16.175 
	51.615,16.192 51.559,16.209 51.503,16.225 51.447,16.24 51.391,16.256 51.334,16.27 51.277,16.284 51.22,16.298 51.163,16.311 
	51.106,16.324 51.049,16.336 50.992,16.348 50.935,16.358 50.878,16.369 50.82,16.378 50.762,16.389 50.704,16.398 50.646,16.405 
	50.589,16.414 50.531,16.421 50.472,16.428 50.415,16.436 50.357,16.441 50.298,16.448 50.24,16.452 50.182,16.457 50.123,16.461 
	50.066,16.464 50.007,16.467 49.948,16.47 49.89,16.473 49.833,16.474 49.773,16.476 49.715,16.476 49.656,16.476 "/>
<polyline fill="none" stroke="#231F20" stroke-linecap="round" stroke-linejoin="round" stroke-miterlimit="2" points="
	91.008,6.283 91.009,6.283 91.011,6.283 91.013,6.282 91.015,6.282 91.016,6.281 91.018,6.281 91.02,6.28 91.021,6.28 91.023,6.28 
	91.025,6.279 91.026,6.278 91.028,6.278 91.03,6.278 91.031,6.277 91.033,6.277 91.035,6.276 91.037,6.275 91.038,6.275 
	91.04,6.275 91.042,6.274 91.043,6.273 91.044,6.273 91.047,6.271 91.048,6.271 91.049,6.271 91.051,6.271 91.054,6.27 
	91.055,6.269 91.057,6.268 91.058,6.268 91.06,6.267 91.062,6.266 91.063,6.265 91.063,6.264 91.065,6.263 91.066,6.262 
	91.068,6.261 91.068,6.26 91.069,6.258 "/>
<polyline fill="none" stroke="#231F20" stroke-linecap="round" stroke-linejoin="round" stroke-miterlimit="2" points="
	49.656,9.441 49.715,9.441 49.773,9.442 49.833,9.443 49.89,9.445 49.948,9.448 50.007,9.45 50.066,9.454 50.123,9.457 
	50.182,9.461 50.24,9.465 50.299,9.471 50.357,9.477 50.415,9.483 50.472,9.489 50.531,9.496 50.589,9.503 50.646,9.512 
	50.704,9.521 50.762,9.53 50.82,9.539 50.878,9.549 50.935,9.56 50.992,9.571 51.049,9.582 51.106,9.594 51.163,9.606 51.22,9.62 
	51.277,9.633 51.334,9.647 51.391,9.662 51.447,9.677 51.503,9.693 51.559,9.709 51.615,9.725 51.671,9.743 51.727,9.761 
	51.782,9.778 51.837,9.797 51.893,9.816 51.947,9.836 52.002,9.858 52.057,9.878 52.111,9.9 52.165,9.921 52.219,9.945 
	52.273,9.967 52.326,9.991 52.379,10.015 52.433,10.04 52.485,10.065 52.537,10.092 52.589,10.118 52.641,10.146 52.692,10.172 
	52.743,10.201 52.794,10.23 52.845,10.259 52.895,10.289 52.944,10.32 52.994,10.351 53.043,10.383 53.092,10.415 53.14,10.448 
	53.188,10.481 53.236,10.516 53.283,10.55 53.329,10.586 53.374,10.622 53.42,10.659 53.465,10.696 53.51,10.734 53.553,10.772 
	53.597,10.811 53.64,10.852 53.682,10.893 53.723,10.933 53.764,10.974 53.805,11.018 53.844,11.06 53.882,11.104 53.92,11.147 
	53.958,11.192 53.996,11.238 54.031,11.284 54.066,11.332 54.101,11.379 54.134,11.426 54.167,11.474 54.198,11.523 54.229,11.573 
	54.258,11.624 54.288,11.674 54.315,11.727 54.342,11.778 54.368,11.831 54.393,11.883 54.417,11.937 54.438,11.991 54.46,12.044 
	54.48,12.1 54.499,12.155 54.518,12.21 54.533,12.267 54.549,12.324 54.563,12.379 54.575,12.438 54.587,12.495 54.598,12.552 
	54.606,12.61 54.614,12.667 54.621,12.725 54.625,12.784 54.628,12.842 54.63,12.9 54.631,12.959 "/>
<polyline fill="none" stroke="#231F20" stroke-linecap="round" stroke-linejoin="round" stroke-miterlimit="2" points="
	49.656,9.793 49.723,9.793 49.789,9.794 49.855,9.796 49.921,9.798 49.987,9.801 50.054,9.804 50.12,9.809 50.186,9.814 
	50.252,9.818 50.317,9.824 50.384,9.831 50.45,9.838 50.515,9.846 50.581,9.855 50.646,9.863 50.712,9.873 50.778,9.884 
	50.843,9.895 50.909,9.907 50.973,9.919 51.038,9.931 51.104,9.945 51.167,9.959 51.232,9.974 51.297,9.99 51.361,10.005 
	51.424,10.023 51.489,10.041 51.552,10.058 51.616,10.078 51.68,10.098 51.742,10.117 51.805,10.138 51.869,10.16 51.93,10.182 
	51.992,10.205 52.054,10.229 52.115,10.253 52.177,10.278 52.238,10.304 52.299,10.331 52.359,10.357 52.419,10.385 52.479,10.414 
	52.538,10.443 52.597,10.474 52.655,10.505 52.714,10.536 52.772,10.569 52.829,10.601 52.886,10.635 52.942,10.669 52.999,10.705 
	53.055,10.742 53.109,10.778 53.164,10.816 53.217,10.855 53.271,10.894 53.324,10.934 53.375,10.974 53.428,11.017 53.478,11.059 
	53.529,11.102 53.579,11.146 53.627,11.19 53.674,11.237 53.722,11.284 53.769,11.331 53.814,11.379 53.858,11.427 53.902,11.477 
	53.945,11.528 53.986,11.579 54.028,11.632 54.066,11.684 54.105,11.738 54.145,11.792 54.181,11.848 54.216,11.903 54.25,11.96 
	54.283,12.018 54.314,12.077 54.345,12.136 54.375,12.194 54.401,12.254 54.428,12.315 54.453,12.377 54.476,12.439 54.497,12.501 
	54.518,12.564 54.536,12.628 54.553,12.692 54.569,12.756 54.583,12.821 54.594,12.887 "/>
<polyline fill="none" stroke="#231F20" stroke-linecap="round" stroke-linejoin="round" stroke-miterlimit="2" points="
	44.718,12.887 44.73,12.822 44.744,12.756 44.76,12.693 44.776,12.628 44.795,12.564 44.815,12.502 44.837,12.439 44.86,12.376 
	44.885,12.316 44.912,12.255 44.939,12.194 44.968,12.135 44.999,12.076 45.03,12.018 45.063,11.961 45.097,11.904 45.133,11.848 
	45.169,11.792 45.207,11.738 45.245,11.685 45.286,11.631 45.327,11.579 45.369,11.527 45.411,11.477 45.455,11.427 45.5,11.379 
	45.545,11.331 45.591,11.284 45.639,11.237 45.686,11.191 45.735,11.146 45.784,11.102 45.834,11.059 45.886,11.017 45.937,10.975 
	45.99,10.934 46.042,10.895 46.095,10.855 46.149,10.816 46.204,10.779 46.259,10.741 46.314,10.706 46.371,10.67 46.427,10.636 
	46.483,10.602 46.541,10.569 46.599,10.536 46.658,10.504 46.716,10.474 46.775,10.444 46.834,10.414 46.895,10.385 46.954,10.357 
	47.014,10.331 47.075,10.304 47.135,10.278 47.197,10.253 47.259,10.229 47.322,10.205 47.383,10.182 47.445,10.16 47.509,10.139 
	47.571,10.118 47.634,10.098 47.697,10.077 47.76,10.059 47.825,10.041 47.889,10.023 47.953,10.006 48.017,9.99 48.082,9.975 
	48.146,9.959 48.21,9.945 48.275,9.932 48.34,9.918 48.405,9.907 48.47,9.895 48.536,9.883 48.602,9.873 48.666,9.863 48.732,9.855 
	48.797,9.846 48.864,9.838 48.93,9.831 48.995,9.825 49.061,9.818 49.126,9.814 49.193,9.809 49.26,9.805 49.325,9.801 
	49.392,9.798 49.458,9.796 49.524,9.794 49.591,9.793 49.657,9.792 "/>
<polyline fill="none" stroke="#231F20" stroke-linecap="round" stroke-linejoin="round" stroke-miterlimit="2" points="
	7.301,21.024 7.307,20.976 7.315,20.927 7.325,20.879 7.335,20.831 7.349,20.784 7.364,20.737 7.379,20.692 7.397,20.646 
	7.417,20.601 7.438,20.557 7.46,20.513 7.483,20.47 7.508,20.428 7.534,20.386 7.562,20.346 7.589,20.306 7.619,20.267 7.65,20.228 
	7.681,20.191 7.713,20.154 7.747,20.118 7.781,20.083 7.815,20.049 7.851,20.014 7.887,19.982 7.924,19.95 7.962,19.918 8,19.888 
	8.04,19.859 8.079,19.829 8.119,19.802 8.16,19.774 8.2,19.747 8.242,19.721 8.284,19.696 8.326,19.671 8.369,19.648 8.413,19.625 
	8.456,19.604 8.501,19.582 8.545,19.562 8.59,19.542 8.634,19.522 8.679,19.503 8.725,19.485 8.771,19.468 8.817,19.452 
	8.863,19.436 8.91,19.421 8.956,19.406 9.003,19.393 9.051,19.38 9.098,19.367 9.146,19.355 9.193,19.345 9.241,19.335 
	9.289,19.325 9.337,19.316 9.385,19.308 9.434,19.3 9.482,19.292 9.531,19.287 9.58,19.281 9.628,19.276 9.677,19.272 9.726,19.269 
	9.774,19.265 "/>
<polyline fill="none" stroke="#231F20" stroke-linecap="round" stroke-linejoin="round" stroke-miterlimit="2" points="
	92.014,21.024 92.006,20.976 91.999,20.927 91.989,20.879 91.978,20.831 91.964,20.784 91.948,20.737 91.934,20.692 91.916,20.646 
	91.896,20.601 91.875,20.557 91.852,20.513 91.831,20.47 91.805,20.428 91.778,20.386 91.751,20.346 91.725,20.306 91.693,20.267 
	91.662,20.228 91.633,20.191 91.6,20.154 91.565,20.118 91.533,20.083 91.497,20.049 91.463,20.014 91.426,19.982 91.388,19.95 
	91.353,19.918 91.313,19.888 91.274,19.859 91.234,19.829 91.193,19.802 91.154,19.774 91.111,19.747 91.072,19.721 91.029,19.696 
	90.987,19.671 90.944,19.648 90.899,19.625 90.857,19.604 90.812,19.582 90.769,19.562 90.723,19.542 90.679,19.522 90.633,19.503 
	90.589,19.485 90.542,19.468 90.497,19.452 90.449,19.436 90.404,19.421 90.356,19.406 90.312,19.393 90.262,19.38 90.216,19.367 
	90.167,19.355 90.121,19.345 90.071,19.335 90.025,19.325 89.976,19.316 89.929,19.308 89.879,19.3 89.832,19.292 89.781,19.287 
	89.734,19.281 89.685,19.276 89.637,19.272 89.586,19.269 89.539,19.265 "/>
<polyline fill="none" stroke="#231F20" stroke-linecap="round" stroke-linejoin="round" stroke-miterlimit="2" points="
	44.682,12.959 44.683,12.9 44.685,12.842 44.688,12.784 44.693,12.725 44.699,12.667 44.707,12.61 44.716,12.552 44.725,12.494 
	44.737,12.437 44.75,12.379 44.765,12.324 44.779,12.267 44.796,12.21 44.813,12.156 44.833,12.1 44.853,12.044 44.875,11.991 
	44.897,11.937 44.92,11.883 44.946,11.831 44.971,11.778 44.998,11.727 45.025,11.674 45.054,11.624 45.084,11.573 45.114,11.523 
	45.146,11.474 45.179,11.426 45.212,11.379 45.246,11.332 45.282,11.284 45.317,11.238 45.354,11.193 45.393,11.148 45.43,11.104 
	45.469,11.06 45.509,11.018 45.549,10.975 45.589,10.933 45.631,10.892 45.673,10.852 45.716,10.811 45.76,10.772 45.804,10.734 
	45.849,10.696 45.894,10.659 45.939,10.622 45.985,10.585 46.031,10.55 46.078,10.516 46.125,10.481 46.173,10.448 46.222,10.415 
	46.27,10.383 46.319,10.351 46.369,10.32 46.419,10.289 46.468,10.259 46.519,10.23 46.569,10.201 46.621,10.172 46.672,10.146 
	46.724,10.118 46.775,10.091 46.828,10.065 46.88,10.04 46.934,10.015 46.987,9.991 47.04,9.967 47.094,9.944 47.148,9.921 
	47.201,9.9 47.256,9.878 47.311,9.857 47.366,9.836 47.42,9.816 47.475,9.797 47.53,9.778 47.586,9.761 47.642,9.743 47.698,9.725 
	47.753,9.709 47.81,9.693 47.866,9.677 47.922,9.662 47.979,9.647 48.035,9.633 48.093,9.62 48.149,9.606 48.207,9.594 
	48.264,9.582 48.321,9.571 48.378,9.56 48.436,9.549 48.494,9.539 48.551,9.53 48.609,9.521 48.667,9.512 48.724,9.503 
	48.783,9.496 48.84,9.489 48.898,9.483 48.957,9.477 49.015,9.471 49.073,9.466 49.131,9.46 49.189,9.457 49.247,9.454 
	49.307,9.451 49.364,9.448 49.423,9.445 49.481,9.443 49.54,9.442 49.599,9.441 49.656,9.441 "/>
</svg>
