<?xml version="1.0" encoding="utf-8"?>
<!-- Generator: Adobe Illustrator 16.0.0, SVG Export Plug-In . SVG Version: 6.00 Build 0)  -->
<!DOCTYPE svg PUBLIC "-//W3C//DTD SVG 1.1//EN" "http://www.w3.org/Graphics/SVG/1.1/DTD/svg11.dtd">
<svg version="1.1" id="Layer_1" xmlns="http://www.w3.org/2000/svg" xmlns:xlink="http://www.w3.org/1999/xlink" x="0px" y="0px"
	 width="100px" height="100px" viewBox="0 0 100 100" enable-background="new 0 0 100 100" xml:space="preserve">
<path fill="#C7C6C6" d="M71.19,68.322c0,1.702-1.38,3.082-3.083,3.082h-36.13c-1.702,0-3.082-1.38-3.082-3.082V32.534
	c0-1.702,1.38-3.082,3.082-3.082h36.13c1.703,0,3.083,1.38,3.083,3.082V68.322z"/>
<rect x="34.889" y="15.456" fill="#C7C6C6" width="3.253" height="10.571"/>
<rect x="41.738" y="15.456" fill="#C7C6C6" width="3.253" height="10.571"/>
<rect x="55.437" y="15.456" fill="#C7C6C6" width="3.254" height="10.571"/>
<rect x="62.286" y="15.456" fill="#C7C6C6" width="3.253" height="10.571"/>
<path fill="#C7C6C6" d="M53.853,3.639c0-2.01-1.629-3.639-3.639-3.639c-2.009,0-3.639,1.629-3.639,3.639
	c0,1.424,0.82,2.654,2.012,3.251v19.137h3.253V6.89C53.032,6.292,53.853,5.063,53.853,3.639z"/>
<rect x="62.286" y="73.973" fill="#C7C6C6" width="3.253" height="10.571"/>
<rect x="55.437" y="73.973" fill="#C7C6C6" width="3.254" height="10.571"/>
<rect x="41.738" y="73.973" fill="#C7C6C6" width="3.253" height="10.571"/>
<rect x="34.889" y="73.973" fill="#C7C6C6" width="3.253" height="10.571"/>
<path fill="#C7C6C6" d="M46.575,96.361c0,2.01,1.629,3.639,3.639,3.639c2.01,0,3.639-1.629,3.639-3.639
	c0-1.424-0.82-2.654-2.012-3.251V73.973h-3.253V93.11C47.396,93.707,46.575,94.938,46.575,96.361z"/>
<rect x="15.456" y="54.795" fill="#C7C6C6" width="10.572" height="3.253"/>
<rect x="15.456" y="41.096" fill="#C7C6C6" width="10.572" height="3.253"/>
<path fill="#C7C6C6" d="M3.639,45.933C1.629,45.933,0,47.563,0,49.572c0,2.01,1.629,3.639,3.639,3.639
	c1.424,0,2.654-0.82,3.251-2.013h19.137v-3.253H6.89C6.293,46.753,5.063,45.933,3.639,45.933z"/>
<rect x="73.973" y="41.096" fill="#C7C6C6" width="10.571" height="3.253"/>
<rect x="73.973" y="54.795" fill="#C7C6C6" width="10.571" height="3.253"/>
<rect x="73.973" y="61.644" fill="#C7C6C6" width="10.571" height="3.254"/>
<path fill="#C7C6C6" d="M96.361,53.211c2.01,0,3.639-1.629,3.639-3.639c0-2.009-1.629-3.639-3.639-3.639
	c-1.424,0-2.654,0.82-3.251,2.012H73.973v3.253H93.11C93.707,52.391,94.938,53.211,96.361,53.211z"/>
<path fill="#C7C6C6" d="M29.271,26.309h1.679v-4.22h-6.134c0.003-0.086,0.012-0.17,0.012-0.257c0-3.521-2.722-6.376-6.079-6.376
	s-6.079,2.854-6.079,6.376c0,3.522,2.722,6.376,6.079,6.376c0.014,0,0.028-0.002,0.043-0.002v9.808h6.935v-8.158
	C25.728,27.896,27.315,26.309,29.271,26.309z M18.75,24.347c-1.324,0-2.397-1.125-2.397-2.515c0-1.389,1.074-2.515,2.397-2.515
	s2.397,1.125,2.397,2.515C21.147,23.222,20.074,24.347,18.75,24.347z"/>
<path fill="#C7C6C6" d="M74.4,29.148v8.158h6.936v-9.807c0.014,0,0.028,0.002,0.043,0.002c3.356,0,6.078-2.854,6.078-6.376
	c0-3.522-2.722-6.376-6.078-6.376c-3.357,0-6.079,2.854-6.079,6.376c0,0.086,0.009,0.171,0.013,0.257h-6.135v4.22h1.68
	C72.813,25.602,74.4,27.189,74.4,29.148z M78.981,21.125c0-1.39,1.073-2.515,2.397-2.515c1.323,0,2.396,1.125,2.396,2.515
	s-1.073,2.515-2.396,2.515C80.055,23.64,78.981,22.515,78.981,21.125z"/>
<path fill="#C7C6C6" d="M25.728,71.023v-8.158h-6.935v9.807c-0.015,0-0.029-0.002-0.043-0.002c-3.357,0-6.079,2.855-6.079,6.377
	s2.722,6.376,6.079,6.376s6.079-2.854,6.079-6.376c0-0.087-0.009-0.172-0.012-0.257h6.134v-4.22h-1.679
	C27.315,74.57,25.728,72.982,25.728,71.023z M21.147,79.047c0,1.389-1.074,2.515-2.397,2.515s-2.397-1.126-2.397-2.515
	c0-1.39,1.074-2.516,2.397-2.516S21.147,77.657,21.147,79.047z"/>
<path fill="#C7C6C6" d="M94.371,83.943L80.811,70.382c-1.204-1.203-3.155-1.203-4.359,0l-1.756,1.756L61.634,59.075l-3.012,3.012
	l13.063,13.062l-1.756,1.756c-1.203,1.204-1.203,3.155,0,4.359l13.561,13.561c1.204,1.204,3.155,1.204,4.359,0l6.522-6.522
	C95.574,87.098,95.574,85.146,94.371,83.943z"/>
<path fill="#C7C6C6" d="M31.849,71.433l36.13-0.001c1.702,0,3.082-1.38,3.082-3.082V32.562c0-0.986-0.464-1.861-1.185-2.425
	L29.581,70.433C30.145,71.045,30.95,71.433,31.849,71.433z"/>
<path fill="#F6F6F6" d="M68.107,29.452h-36.13c-1.702,0-3.082,1.38-3.082,3.082v35.788c0,0.985,0.464,1.861,1.185,2.425
	l40.296-40.295C69.813,29.839,69.006,29.452,68.107,29.452z"/>
<path fill="#1D1D1B" d="M49.872,31.592c-10.121,0-18.322,8.201-18.322,18.322c0,10.121,8.201,18.322,18.322,18.322
	s18.322-8.201,18.322-18.322C68.193,39.793,59.992,31.592,49.872,31.592z M49.872,62.426c-6.907,0-12.511-5.606-12.511-12.511
	c0-6.907,5.604-12.507,12.511-12.507s12.51,5.601,12.51,12.507C62.382,56.819,56.778,62.426,49.872,62.426z"/>
<circle fill="#1D1D1B" cx="45.762" cy="45.12" r="3.082"/>
</svg>
